<?xml version="1.0" standalone="no"?>
<!DOCTYPE svg PUBLIC "-//W3C//DTD SVG 20010904//EN"
 "http://www.w3.org/TR/2001/REC-SVG-20010904/DTD/svg10.dtd">
<svg version="1.0" xmlns="http://www.w3.org/2000/svg"
 width="300.000000pt" height="300.000000pt" viewBox="0 0 300.000000 300.000000"
 preserveAspectRatio="xMidYMid meet">

<g transform="translate(0.000000,300.000000) scale(0.100000,-0.100000)"
fill="#000000" stroke="none">
<path d="M0 1500 l0 -1500 491 0 c428 0 490 2 486 15 -4 8 -2 17 3 20 6 4 10
-3 10 -14 0 -16 6 -21 29 -21 18 0 31 6 35 18 3 9 9 23 12 30 4 10 -4 11 -36
6 -41 -7 -42 -6 -31 15 7 11 22 27 34 35 22 14 96 31 85 20 -4 -3 2 -14 13
-25 21 -21 25 -39 9 -39 -17 0 -11 -30 8 -37 9 -4 20 -10 23 -15 3 -5 53 -7
110 -6 l104 3 -57 27 c-61 29 -73 40 -35 31 18 -5 20 -3 10 7 -10 11 -18 11
-38 2 -20 -9 -33 -8 -67 7 -66 28 -73 41 -54 98 20 58 20 69 1 53 -13 -11 -15
-10 -10 6 5 15 3 15 -11 -4 -9 -12 -23 -22 -30 -22 -8 0 -14 -4 -14 -10 0 -5
-7 -10 -15 -10 -25 0 -17 -15 17 -33 l33 -16 -52 4 c-38 3 -57 -1 -68 -11 -8
-9 -15 -14 -15 -12 0 5 48 150 69 208 11 30 34 109 51 175 17 66 47 167 65
225 18 58 35 124 38 148 5 39 50 170 80 231 17 34 162 137 214 151 65 19 103
46 103 75 0 36 13 31 26 -10 9 -28 8 -33 -2 -24 -9 7 -15 6 -20 -3 -14 -21 -8
-121 8 -152 15 -29 16 -29 94 -27 43 1 95 -3 114 -9 19 -5 38 -6 43 -1 8 8
-52 130 -87 176 -16 20 -16 20 -22 -2 -5 -19 -42 -39 -53 -28 -2 3 16 23 40
46 29 27 38 40 25 37 -18 -3 -28 8 -70 83 -13 23 -13 29 0 48 9 12 34 31 57
43 l42 21 -55 11 c-71 15 -77 19 -89 63 -10 36 -3 66 15 63 24 -3 11 27 -16
37 -52 20 -37 35 28 28 31 -4 64 -8 72 -11 8 -2 21 0 29 5 21 13 -60 34 -136
35 -55 1 -63 3 -63 20 0 14 -6 17 -25 14 -16 -3 -25 -1 -25 7 0 7 -9 15 -20
18 -20 5 -42 45 -33 60 2 4 20 7 38 7 24 0 38 -6 45 -20 14 -25 58 -47 88 -42
29 4 28 20 -3 52 l-25 26 19 49 c26 68 42 68 70 -1 l24 -56 84 4 c94 5 98 8
108 75 6 41 8 43 33 37 49 -12 55 -23 48 -86 -4 -46 -3 -58 8 -58 9 0 17 16
21 40 5 32 15 46 43 65 42 29 64 31 82 10 45 -54 -81 -253 -144 -229 -18 7
-22 -16 -6 -32 5 -5 11 -53 12 -106 l3 -96 25 21 c14 12 30 28 37 36 10 11 19
1 47 -58 19 -40 37 -67 41 -62 7 12 68 -13 100 -40 11 -9 43 -28 71 -42 73
-37 158 -110 179 -154 14 -29 21 -79 28 -223 5 -102 9 -203 8 -225 -5 -195 -8
-221 -27 -256 -11 -19 -25 -34 -31 -32 -7 3 -20 0 -30 -6 -15 -9 -13 -10 9 -5
24 5 29 2 39 -22 20 -52 -10 -246 -55 -364 -8 -20 -12 -48 -9 -63 l5 -27 269
0 269 0 0 1500 0 1500 -1500 0 -1500 0 0 -1500z m1850 812 c44 -17 46 -19 82
-116 20 -53 42 -104 49 -112 17 -20 6 -26 -25 -14 -15 5 -59 10 -99 10 -50 0
-68 3 -60 11 12 12 116 14 134 3 7 -4 10 -1 7 7 -2 8 -23 20 -47 28 -61 19
-150 -2 -169 -41 -20 -42 -49 -45 -84 -9 -22 22 -46 34 -90 43 l-61 13 33 13
c23 9 36 24 47 52 9 22 19 40 24 40 4 0 5 8 2 18 -14 54 162 90 257 54z m-297
-239 c-7 -2 -21 -2 -30 0 -10 3 -4 5 12 5 17 0 24 -2 18 -5z m207 -38 c8 -22
32 -36 29 -17 -4 21 3 23 21 7 15 -14 23 -16 32 -7 8 8 15 7 26 -4 13 -13 17
-13 33 2 18 16 19 16 19 -2 0 -10 -5 -35 -10 -55 -12 -42 -27 -49 -108 -49
-52 0 -53 1 -68 37 -27 63 -29 100 -8 106 11 3 20 5 22 6 1 0 7 -10 12 -24z
m-172 -61 c21 -14 21 -17 7 -45 -14 -26 -20 -29 -65 -29 l-50 0 0 35 c0 28 5
38 23 45 33 13 60 12 85 -6z m29 -596 c-3 -8 -6 -5 -6 6 -1 11 2 17 5 13 3 -3
4 -12 1 -19z m43 -118 c0 -5 -2 -10 -4 -10 -3 0 -8 5 -11 10 -3 6 -1 10 4 10
6 0 11 -4 11 -10z m72 -122 c-7 -7 -12 -8 -12 -2 0 14 12 26 19 19 2 -3 -1
-11 -7 -17z"/>
<path d="M2136 1969 c7 -8 14 -23 17 -34 4 -13 5 -9 4 9 -1 16 -9 32 -17 34
-12 4 -13 2 -4 -9z"/>
<path d="M2066 1900 c4 -14 7 -30 7 -37 0 -7 4 -10 9 -7 13 8 10 28 -8 50 -14
18 -15 18 -8 -6z"/>
<path d="M1690 1860 c20 -13 43 -13 35 0 -3 6 -16 10 -28 10 -18 0 -19 -2 -7
-10z"/>
<path d="M1810 1359 c-22 -18 -22 -19 -3 -10 12 6 25 16 28 21 9 15 3 12 -25
-11z"/>
<path d="M2043 1093 c-15 -21 -36 -47 -46 -58 -10 -11 -28 -38 -39 -60 -11
-22 -29 -52 -39 -67 -11 -14 -19 -31 -19 -37 0 -5 -12 -27 -26 -48 -14 -21
-30 -48 -35 -60 -5 -13 -13 -23 -19 -23 -6 0 -8 -4 -5 -10 3 -5 2 -10 -2 -10
-5 0 -17 -17 -28 -37 -11 -21 -23 -40 -26 -43 -12 -10 -87 -175 -94 -208 -4
-18 -10 -30 -15 -27 -4 3 -15 -6 -24 -20 -9 -14 -13 -25 -9 -25 4 0 -5 -12
-19 -27 -30 -33 -43 -69 -28 -78 6 -4 35 -7 65 -7 43 -1 52 -3 48 -16 -5 -12
-1 -14 20 -8 14 3 37 2 52 -4 20 -8 27 -7 31 5 3 7 19 17 35 20 33 8 49 25 22
25 -11 0 -25 6 -31 12 -9 9 -15 10 -20 2 -7 -11 -45 -34 -56 -34 -3 0 -5 16
-4 35 1 19 -2 38 -5 42 -4 3 0 14 9 24 10 11 12 19 5 24 -18 10 -12 25 14 37
14 6 25 19 25 28 0 9 33 43 74 76 73 57 104 93 71 80 -9 -3 -13 -2 -10 4 3 6
12 10 20 10 13 0 26 29 65 153 12 37 33 88 47 112 14 25 20 45 15 45 -6 0 -14
-9 -17 -21 -4 -11 -12 -18 -19 -16 -25 10 -36 -11 -78 -134 -45 -132 -63 -169
-83 -169 -12 0 -27 -24 -22 -36 1 -3 -6 -10 -15 -15 -10 -6 -18 -17 -18 -24 0
-8 -7 -15 -15 -15 -8 0 -15 -7 -15 -15 0 -9 -8 -14 -22 -12 -12 1 -23 -2 -23
-8 0 -10 -45 -59 -45 -49 0 27 299 575 372 682 36 52 20 56 -19 5z"/>
<path d="M2085 1032 c-28 -42 -56 -88 -64 -102 l-14 -25 21 19 c23 20 117 174
110 181 -2 2 -26 -31 -53 -73z"/>
<path d="M1274 826 c-3 -14 -3 -29 0 -35 4 -5 2 -12 -3 -15 -5 -4 -7 -21 -5
-39 3 -17 6 -52 8 -77 1 -25 5 -50 9 -56 3 -6 9 -46 13 -90 12 -158 14 -164
37 -164 7 0 39 -13 72 -29 88 -43 137 -63 143 -57 2 3 6 22 7 43 3 43 13 73
25 73 5 0 20 34 33 75 26 75 24 103 -2 44 -8 -19 -18 -28 -27 -25 -8 3 -14 1
-14 -4 0 -6 -7 -10 -15 -10 -8 0 -15 -5 -15 -11 0 -5 -5 -7 -11 -4 -18 12 -59
-4 -59 -23 0 -14 2 -15 10 -2 8 13 11 13 25 -1 20 -20 30 -69 13 -69 -18 0
-68 52 -68 71 0 17 -26 33 -40 24 -4 -3 -11 10 -14 28 -3 18 -18 45 -32 60
-14 16 -23 31 -20 34 3 3 1 13 -3 22 -5 9 -12 43 -15 76 -11 100 -28 185 -37
185 -5 0 -11 -11 -15 -24z"/>
<path d="M1980 518 c-14 -5 -38 -7 -55 -4 -23 4 -38 -1 -65 -24 -19 -15 -33
-31 -30 -33 3 -3 43 8 90 24 47 16 106 29 132 29 26 0 49 3 51 8 7 10 -94 11
-123 0z"/>
<path d="M2014 431 c-3 -3 -29 -9 -57 -12 -29 -4 0 -5 63 -2 126 6 167 18 64
18 -36 1 -67 -1 -70 -4z"/>
<path d="M2355 383 c-14 -20 -15 -30 -7 -42 7 -9 18 -29 26 -46 17 -38 96
-123 96 -104 0 8 -21 57 -47 109 -25 52 -46 98 -45 103 4 14 -6 6 -23 -20z"/>
<path d="M1820 389 c0 -5 5 -7 10 -4 6 3 10 8 10 11 0 2 -4 4 -10 4 -5 0 -10
-5 -10 -11z"/>
<path d="M1994 341 c4 -6 32 -11 63 -11 70 0 66 5 -11 15 -41 5 -56 3 -52 -4z"/>
<path d="M1753 175 c0 -15 5 -25 14 -25 8 0 11 -4 8 -10 -3 -5 -1 -10 4 -10
14 0 14 6 -4 40 -19 36 -22 37 -22 5z"/>
<path d="M1675 150 c3 -5 8 -10 11 -10 2 0 4 5 4 10 0 6 -5 10 -11 10 -5 0 -7
-4 -4 -10z"/>
<path d="M2276 133 c3 -15 11 -35 18 -43 7 -8 16 -26 20 -40 9 -39 23 -57 36
-44 17 17 -17 105 -50 132 l-29 22 5 -27z"/>
<path d="M1685 121 c-5 -9 19 -58 36 -71 3 -3 9 -15 13 -27 8 -24 30 -31 41
-13 8 13 -8 41 -49 85 -19 20 -37 31 -41 26z"/>
<path d="M2177 106 c-7 -18 3 -56 14 -56 5 0 7 14 4 32 -7 39 -11 44 -18 24z"/>
<path d="M1596 85 c-4 -17 -12 -25 -21 -21 -7 2 -15 0 -17 -6 -3 -8 -11 -7
-27 1 -41 22 -47 -3 -8 -33 31 -23 42 -26 118 -25 56 0 77 3 63 9 -11 4 -39
29 -61 55 l-40 47 -7 -27z"/>
</g>
</svg>
